<svg width="536" height="493" viewBox="0 0 536 493" fill="none" xmlns="http://www.w3.org/2000/svg">
<rect x="23" y="15" width="489" height="463" rx="173" fill="#363A4F" stroke="#6E738D" stroke-width="10"/>
<path d="M327.818 118.84C327.818 154.098 299.236 182.68 263.978 182.68C228.72 182.68 200.138 154.098 200.138 118.84C200.138 83.5822 228.72 55 263.978 55C299.236 55 327.818 83.5822 327.818 118.84Z" fill="#8BD5CA"/>
<path d="M327.818 374.16C327.818 409.418 299.236 438 263.978 438C228.72 438 200.138 409.418 200.138 374.16C200.138 338.902 228.72 310.32 263.978 310.32C299.236 310.32 327.818 338.902 327.818 374.16Z" fill="#8BD5CA"/>
<path d="M459 246.5C459 281.758 430.418 310.34 395.16 310.34C359.902 310.34 331.32 281.758 331.32 246.5C331.32 211.242 359.902 182.66 395.16 182.66C430.418 182.66 459 211.242 459 246.5Z" fill="#8BD5CA"/>
<path d="M203.68 246.5C203.68 281.758 175.098 310.34 139.84 310.34C104.582 310.34 76 281.758 76 246.5C76 211.242 104.582 182.66 139.84 182.66C175.098 182.66 203.68 211.242 203.68 246.5Z" fill="#8BD5CA"/>
</svg>
