<svg width="306" height="328" viewBox="0 0 306 328" fill="none" xmlns="http://www.w3.org/2000/svg">
<path d="M159.72 266.706L133.89 277.07C125.158 280.574 116.343 272.209 119.384 263.306L125.313 245.946C132.977 223.508 138.63 200.433 142.207 176.993L149.701 127.872H167.271C159.505 163.614 157.067 200.308 160.038 236.762L162.157 262.767C162.296 264.473 161.308 266.069 159.72 266.706Z" stroke="#FF0000" stroke-width="10"/>
<path d="M93.0876 168.319V189.662C93.0876 190.848 94.3574 191.602 95.3989 191.034C114.821 180.44 130.346 163.91 139.702 143.862L145.208 132.063C145.538 131.354 145.259 130.511 144.571 130.141C137.29 126.22 128.666 125.654 120.936 128.59L115.478 130.662C115.236 130.754 115.013 130.889 114.819 131.06L106.555 138.385C97.9902 145.977 93.0876 156.874 93.0876 168.319Z" stroke="#FF0000" stroke-width="10"/>
<path d="M64.2758 107.779L52.1668 120.574C51.1186 121.681 51.5387 123.499 52.9665 124.035C76.5614 132.883 102.092 135.264 126.916 130.932L143.163 128.097C143.348 128.065 143.44 127.855 143.34 127.698L139.077 120.995C137.595 118.664 133.987 119.714 133.987 122.476C133.987 122.613 133.812 122.671 133.73 122.561L125.413 111.389C110.577 91.4602 81.3535 89.7348 64.2758 107.779Z" stroke="#FF0000" stroke-width="10"/>
<path d="M255.309 95.7029L255.309 95.0549C255.309 94.4755 254.912 93.9714 254.349 93.8353L244.569 91.4726C214.482 84.204 183.203 97.6234 167.738 124.435C167.262 125.26 168.04 126.243 168.953 125.967L175.499 123.993C180.932 122.354 186.576 121.521 192.251 121.521L209.432 121.521L224.476 123.23C240.91 125.098 255.309 112.243 255.309 95.7029Z" stroke="#FF0000" stroke-width="10"/>
<path d="M185.045 166.255L216.092 193.481C216.645 193.966 217.515 193.621 217.584 192.888L218.235 186.024C220.92 157.709 200.65 132.373 172.436 128.779C171.961 128.719 171.541 129.089 171.541 129.567L171.541 138.796C171.541 143.179 172.456 147.513 174.226 151.521C176.717 157.162 180.41 162.19 185.045 166.255Z" stroke="#FF0000" stroke-width="10"/>
<path d="M114.618 51.4983L101.168 49.2002C100.049 49.009 99.0767 49.9808 99.2673 51.0999C103.332 74.9678 115.211 96.809 133.038 113.192L146.887 125.919C146.904 125.934 146.921 125.948 146.94 125.96C152.463 129.45 159.409 124.387 157.777 118.061L152.051 95.8663L145.596 77.6002C140.765 63.9276 128.912 53.9405 114.618 51.4983Z" stroke="#FF0000" stroke-width="10"/>
<path d="M159.155 113.925L160.039 116.077C160.788 117.9 163.061 118.518 164.63 117.325L171.915 111.784C189.713 98.2459 205.103 81.8047 217.437 63.1511L222.193 55.9579C223.512 53.9635 222.081 51.3033 219.691 51.3033L212.722 51.3033C203.573 51.3033 194.554 53.4676 186.401 57.6194L178.692 61.5456C178.51 61.6383 178.338 61.7493 178.178 61.8769L171.157 67.4973C157.295 78.5939 152.407 97.5009 159.155 113.925Z" stroke="#FF0000" stroke-width="10"/>
<path d="M162 147C166.418 147 170 143.418 170 139C170 134.582 166.418 131 162 131C157.582 131 154 134.582 154 139C154 143.418 157.582 147 162 147Z" fill="#890000" stroke="#890000" stroke-width="4"/>
<path d="M148 143C152.418 143 156 139.418 156 135C156 130.582 152.418 127 148 127C143.582 127 140 130.582 140 135C140 139.418 143.582 143 148 143Z" fill="#890000" stroke="#890000" stroke-width="4"/>
<path d="M128 229L136.4 234.929C142.117 238.965 148.243 242.39 154.676 245.147L159 247" stroke="#FF0000" stroke-width="8"/>
<path d="M136 201L147.281 208.963C151.002 211.59 155.445 213 160 213V213" stroke="#FF0000" stroke-width="8"/>
<path d="M143 169L146.555 173.094C151.114 178.345 156.301 183.015 162 187V187" stroke="#FF0000" stroke-width="8"/>
</svg>
